<?xml version="1.0" encoding="UTF-8"?>
<svg version="1.2" viewBox="0 0 94 106" xmlns="http://www.w3.org/2000/svg">
<title>vector pokeball pixelated-svg</title>
<defs>
<filter id="j" x="-50%" y="-50%" width="200%" height="200%">
<feGaussianBlur stdDeviation="1.8"/>
</filter>
<linearGradient id="g" x2="1" gradientTransform="matrix(27.776,80.996,-80.996,27.776,33.411,12.197)" gradientUnits="userSpaceOnUse">
<stop stop-color="#a30202" offset="0"/>
<stop stop-color="#d00121" offset=".415"/>
<stop stop-color="#710114" offset=".445"/>
<stop stop-color="#fefefe" offset=".499"/>
<stop stop-color="#cbbebd" offset=".567"/>
<stop stop-color="#fff" offset=".594"/>
<stop stop-color="#fff" offset=".939"/>
<stop stop-color="#fff" offset="1"/>
</linearGradient>
<linearGradient id="f" x2="1" gradientTransform="matrix(83.624,-30.193,19.624,54.352,5.639,52.108)" gradientUnits="userSpaceOnUse">
<stop stop-color="#57000b" offset="0"/>
<stop stop-color="#830017" offset="1"/>
</linearGradient>
<filter id="a" x="-50%" y="-50%" width="200%" height="200%">
<feGaussianBlur stdDeviation=".7"/>
</filter>
<filter id="i" x="-50%" y="-50%" width="200%" height="200%">
<feGaussianBlur stdDeviation="1.2"/>
</filter>
<linearGradient id="e" x2="1" gradientTransform="matrix(10.577,32.105,-43.637,14.377,51.706,60.332)" gradientUnits="userSpaceOnUse">
<stop stop-color="#fff" stop-opacity="0" offset="0"/>
<stop stop-color="#d5c9c9" offset=".389"/>
<stop stop-color="#4e4542" offset="1"/>
</linearGradient>
<radialGradient id="d" cx="0" cy="0" r="1" gradientTransform="matrix(11.971,0,0,11.971,47.007,52.986)" gradientUnits="userSpaceOnUse">
<stop stop-color="#fff" stop-opacity=".85" offset="0"/>
<stop stop-color="#cdcdcd" stop-opacity=".97" offset=".672"/>
<stop stop-color="#fff" offset="1"/>
</radialGradient>
<radialGradient id="c" cx="0" cy="0" r="1" gradientTransform="matrix(8.031,0,0,8.031,47.007,52.986)" gradientUnits="userSpaceOnUse">
<stop stop-color="#fff" stop-opacity=".85" offset="0"/>
<stop stop-color="#fff" offset="1"/>
</radialGradient>
<linearGradient id="b" x2="1" gradientTransform="matrix(20.744,2.576,-8.64,69.569,68.923,53.469)" gradientUnits="userSpaceOnUse">
<stop stop-color="#fff" stop-opacity="0" offset="0"/>
<stop stop-color="#fff" offset="1"/>
</linearGradient>
<filter id="h" x="-50%" y="-50%" width="200%" height="200%">
<feGaussianBlur stdDeviation="1.6"/>
</filter>
</defs>
<style>.s0 { opacity: .4;filter: url(#j);fill: #000000;stroke: #000000;stroke-width: .5 } 
		.s1 { fill: #000000;stroke: #000000;stroke-width: .5 } 
		.s2 { fill: #000000 } 
		.s3 { fill: url(#g);stroke: #000000;stroke-width: .5 } 
		.s4 { opacity: .5;fill: url(#f) } 
		.s5 { opacity: 1;filter: url(#a);fill: #ffffff } 
		.s6 { opacity: .9;filter: url(#a);fill: #ffffff } 
		.s7 { opacity: .4;filter: url(#i);fill: url(#e) } 
		.s8 { fill: url(#d) } 
		.s9 { fill: url(#c) } 
		.s10 { opacity: .4;fill: url(#b) } 
		.s11 { opacity: .7;filter: url(#h);fill: #ffffff }</style>
<path class="s0" d="m46.9 7.2c-24.8-0.6-46.9 22.1-45.6 46.9-0.1 24.8 23.1 46.4 47.8 44.6 24.9-0.5 46-24.3 43.6-49.1-1.4-23.3-22.3-42.8-45.8-42.4z"/>
<path class="s1" d="m46.9 8.9c-23.9-0.6-45.2 21.2-44 45.1 0 24 22.3 44.8 46.1 43 24.1-0.4 44.3-23.4 42-47.2-1.3-22.6-21.5-41.3-44.1-40.9z"/>
<path class="s2" d="m47 95.7c-23.6 0-42.7-19.1-42.7-42.7s19.1-42.7 42.7-42.7 42.7 19.1 42.7 42.7-19.1 42.7-42.7 42.7z"/>
<path class="s3" d="m89.7 53c0 5.6-1.1 11.2-3.2 16.3-2.2 5.2-5.3 9.9-9.3 13.9-3.9 4-8.7 7.1-13.8 9.3-5.2 2.1-10.8 3.2-16.4 3.2s-11.2-1.1-16.3-3.2c-5.2-2.2-9.9-5.3-13.9-9.3s-7.1-8.7-9.3-13.9c-2.1-5.1-3.2-10.7-3.2-16.3s1.1-11.2 3.2-16.4c2.2-5.2 5.3-9.9 9.3-13.8 4-4 8.7-7.1 13.9-9.3 5.1-2.1 10.7-3.2 16.3-3.2s11.2 1.1 16.4 3.2c5.1 2.2 9.9 5.3 13.8 9.3 4 3.9 7.1 8.6 9.3 13.8 2.1 5.2 3.2 10.8 3.2 16.4z"/>
<path class="s4" d="m47 10.3c-23.6 0-42.7 19.1-42.7 42.7 0 8.2 2.4 16.3 6.9 23.2-4.7-7.2-3.3-10.5-3.3-16 0-22.9 18.6-41.4 41.4-41.4 17.3 0 36.9 10 39.8 26.5 0.4 1.9 0.1 3.8 0.6 5.9-1-22.9-19.8-40.9-42.7-40.9z"/>
<path class="s5" d="m41.3 12.1c-0.8-0.3-1.8-0.2-2.7-0.1-3.2 0.4-5.7 1.1-6.8 2.4-0.3 0.9-0.3 3.9 0.7 3.7 3-0.3 4.6 0.6 6.7 0 1.2-0.4 2.6-1 3.2-2.1 0.5-0.9 0.6-2.1 0.2-3-0.2-0.5-0.8-0.8-1.3-0.9z" fill-rule="evenodd"/>
<path class="s6" d="m48.7 12.7c3.2 0.4 15.4 4.1 20.4 7.6 0.6 0.1 0.9-1.8 0.6-2-4.7-2.6-10.1-5.5-15.9-6.2-1.7-0.2-3.1-0.4-5.1 0.6z" fill-rule="evenodd"/>
<path class="s7" d="m79.4 81.4c-3.7 4.2-8.2 7.7-13.2 10.2-5 2.4-10.5 3.9-16.1 4.3-5.6 0.3-11.2-0.4-16.5-2.2-5.4-1.8-10.3-4.6-14.5-8.3q-2.3-2.1-4.3-4.4t-3.6-4.9q-1.7-2.6-2.9-5.4-1.3-2.8-2.1-5.8 0.9 1.9 2 3.6 1 1.8 2.3 3.4 1.2 1.6 2.6 3.1t3 2.9c4 3.6 8.8 6.3 14 8.1 5.1 1.7 10.6 2.4 16 2.1 5.4-0.4 10.7-1.8 15.6-4.2s9.2-5.8 12.8-9.9c3.1-3.5 5.5-7.5 7.3-11.8 1.7-4.4 2.7-8.9 2.9-13.6s-0.4-9.3-1.7-13.8c-1.4-4.5-3.5-8.7-6.2-12.5 3.9 3.8 7.1 8.3 9.4 13.3 2.2 4.9 3.5 10.3 3.7 15.7 0.3 5.5-0.5 10.9-2.3 16.1-1.8 5.1-4.6 9.9-8.2 14z"/>
<path class="s2" d="m5 61.5 80.6-27.2c1.5 3.2 3 6.4 3.4 10.2l-80.5 27.1c-1.6-3.4-2.7-6.8-3.5-10.1z"/>
<path class="s2" d="m47 67.7c-8.2 0-14.8-6.6-14.8-14.7 0-8.2 6.6-14.8 14.8-14.8s14.8 6.6 14.8 14.8c0 8.1-6.6 14.7-14.8 14.7z"/>
<path class="s8" d="m47 65c-6.6 0-12-5.4-12-12s5.4-12 12-12 12 5.4 12 12-5.4 12-12 12z"/>
<path class="s2" d="m47 61.8c-4.9 0-8.8-3.9-8.8-8.8s3.9-8.9 8.8-8.9 8.9 4 8.9 8.9-4 8.8-8.9 8.8z"/>
<path class="s9" d="m47 61c-4.4 0-8-3.6-8-8 0-4.5 3.6-8 8-8s8 3.5 8 8c0 4.4-3.6 8-8 8z"/>
<path class="s10" d="m72.1 18.6-7 72.9c3.3-1.5 6.4-3.5 9.2-5.9s5.3-5.1 7.4-8.1 3.9-6.3 5.1-9.7c1.3-3.5 2.2-7.1 2.5-10.7 0.4-3.7 0.2-7.4-0.4-11s-1.6-7.2-3.1-10.5c-1.5-3.4-3.5-6.5-5.8-9.4s-4.9-5.4-7.9-7.6z"/>
<path class="s11" d="m48.7 91c3.2-0.3 15.4-4 20.4-7.5 0.6-0.1 0.9 1.7 0.6 2-4.7 2.5-10.1 5.5-15.9 6.2-1.7 0.2-3.1 0.4-5.1-0.7z" fill-rule="evenodd"/>
</svg>
